<?xml version="1.0" standalone="no"?>
<!DOCTYPE svg PUBLIC "-//W3C//DTD SVG 20010904//EN"
 "http://www.w3.org/TR/2001/REC-SVG-20010904/DTD/svg10.dtd">
<svg version="1.0" xmlns="http://www.w3.org/2000/svg"
 width="500.000000pt" height="500.000000pt" viewBox="0 0 500.000000 500.000000"
 preserveAspectRatio="xMidYMid meet">

<g transform="translate(0.000000,500.000000) scale(0.100000,-0.100000)"
fill="#000000" stroke="none">
<path d="M50 4257 c0 -93 8 -115 24 -65 15 44 84 90 172 113 91 25 602 36 588
13 -4 -7 -188 -299 -409 -648 -221 -349 -405 -641 -409 -647 -6 -10 89 -13
458 -13 l466 0 0 113 0 112 -19 -40 c-23 -50 -43 -68 -111 -99 -69 -31 -176
-53 -321 -66 -124 -11 -339 -14 -339 -4 0 3 184 297 410 654 225 356 410 651
410 654 0 3 -207 6 -460 6 l-460 0 0 -83z"/>
<path d="M2130 4326 c27 -9 41 -24 60 -61 l25 -50 3 -472 c5 -605 -5 -695 -79
-710 -75 -15 -26 -23 136 -23 162 0 211 8 136 23 -69 14 -83 112 -79 562 l3
330 70 18 c90 23 232 19 289 -8 55 -27 102 -79 123 -139 16 -45 18 -88 18
-356 0 -375 -1 -377 -100 -417 -24 -9 118 -15 257 -11 73 3 86 5 61 12 -41 11
-68 41 -82 91 -6 22 -14 175 -17 340 -3 165 -10 316 -15 336 -14 55 -63 116
-117 143 -94 48 -178 54 -424 30 l-68 -7 0 192 0 191 -117 -1 c-106 0 -114 -2
-83 -13z"/>
<path d="M1412 4128 c-25 -25 -6 -68 30 -68 26 0 45 44 28 65 -15 18 -41 20
-58 3z"/>
<path d="M1552 4128 c-28 -28 -1 -75 36 -63 26 8 34 41 15 60 -18 18 -35 19
-51 3z"/>
<path d="M3639 3976 c-2 -3 -113 -10 -247 -17 -197 -10 -237 -15 -210 -23 25
-8 39 -23 58 -61 24 -48 24 -56 28 -325 6 -391 -11 -503 -79 -517 -75 -15 -26
-23 136 -23 162 0 211 8 136 23 -69 14 -83 112 -79 562 l3 330 60 12 c33 7
119 16 190 19 110 6 135 4 162 -10 42 -21 63 -53 63 -94 0 -33 -24 -92 -38
-92 -4 0 -14 -5 -22 -10 -12 -7 -11 -13 10 -34 61 -66 170 0 170 104 0 63 -57
130 -128 150 -36 10 -204 14 -213 6z"/>
<path d="M4421 3964 c-204 -55 -331 -241 -331 -484 0 -149 50 -281 141 -372
166 -165 470 -163 632 6 58 59 102 132 87 141 -5 3 -19 -13 -30 -35 -31 -61
-94 -118 -168 -153 -60 -29 -76 -32 -162 -32 -82 0 -103 4 -152 27 -190 89
-281 350 -213 613 34 130 105 225 197 265 44 19 65 22 137 18 106 -5 176 -38
228 -108 88 -119 82 -325 -11 -381 -58 -35 -79 -27 -261 98 -83 58 -140 73
-199 53 -37 -12 -86 -61 -86 -86 0 -13 3 -13 22 0 40 28 92 19 216 -36 108
-48 124 -52 210 -56 113 -5 164 11 216 68 40 45 56 92 56 171 0 98 -67 196
-169 249 -94 48 -253 63 -360 34z"/>
<path d="M1079 3937 c78 -27 91 -90 91 -453 0 -200 3 -272 15 -310 43 -145
196 -210 433 -184 59 7 177 15 262 19 127 6 149 9 121 17 -41 12 -69 46 -81
100 -5 21 -10 216 -10 432 l0 392 -122 -1 c-93 -1 -115 -3 -91 -10 42 -12 69
-48 82 -110 7 -30 11 -194 11 -419 l0 -369 -57 -18 c-87 -26 -233 -24 -298 5
-64 29 -82 46 -113 107 -23 44 -26 67 -33 200 -4 83 -8 255 -8 383 l-1 232
-117 -1 c-104 0 -114 -2 -84 -12z"/>
<path d="M140 1400 l0 -740 2420 0 2420 0 0 740 0 740 -60 0 -60 0 0 -680 0
-680 -2300 0 -2300 0 0 680 0 680 -60 0 -60 0 0 -740z"/>
<path d="M1687 2013 c-4 -3 -7 -25 -7 -47 l0 -41 20 33 c18 29 24 32 70 32
l50 0 -2 -162 c-3 -162 -3 -162 -28 -175 -22 -11 -15 -13 60 -13 75 0 82 2 60
13 -25 13 -25 13 -28 175 l-2 162 39 0 c53 0 70 -8 84 -39 l11 -26 4 33 c7 63
8 62 -166 62 -87 0 -162 -3 -165 -7z"/>
<path d="M2210 2015 c0 -3 11 -10 25 -15 25 -9 25 -10 25 -136 0 -143 12 -184
64 -212 43 -23 144 -22 179 1 57 37 67 69 67 210 l0 127 28 12 27 12 -32 4
c-18 2 -50 2 -70 0 -38 -4 -38 -4 -12 -15 35 -15 39 -29 39 -131 -1 -166 -28
-212 -125 -212 -47 0 -56 3 -79 31 -25 29 -26 36 -26 154 0 131 4 155 25 155
8 0 17 5 20 10 4 6 -23 10 -74 10 -45 0 -81 -2 -81 -5z"/>
<path d="M2847 2013 c-4 -3 -7 -27 -6 -52 1 -45 1 -46 10 -14 11 39 29 45 125
41 l71 -3 -124 -170 -123 -170 161 -3 c89 -1 163 -1 165 1 2 2 6 26 9 53 l6
49 -15 -33 c-8 -17 -27 -37 -41 -42 -26 -10 -195 -14 -195 -5 0 2 54 79 120
170 66 91 120 169 120 175 0 11 -272 14 -283 3z"/>
<path d="M611 1360 c-19 -11 -9 -45 14 -45 13 0 21 8 23 21 3 23 -17 37 -37
24z"/>
<path d="M700 1355 c-16 -19 -6 -45 19 -45 23 0 35 28 20 46 -15 18 -24 18
-39 -1z"/>
<path d="M1790 1355 c-15 -18 -6 -45 13 -45 8 0 20 7 27 15 10 12 10 18 0 30
-16 19 -24 19 -40 0z"/>
<path d="M1881 1356 c-15 -18 -3 -46 20 -46 25 0 35 26 19 45 -15 19 -24 19
-39 1z"/>
<path d="M4551 1360 c-19 -11 -9 -45 14 -45 13 0 21 8 23 21 3 23 -17 37 -37
24z"/>
<path d="M470 1255 c0 -3 11 -10 25 -15 25 -9 25 -10 25 -136 0 -143 12 -184
64 -212 43 -23 144 -22 179 1 57 37 67 69 67 210 l0 127 28 12 27 12 -32 4
c-18 2 -50 2 -70 0 -38 -4 -38 -4 -12 -15 35 -15 39 -29 39 -131 -1 -166 -28
-212 -125 -212 -47 0 -56 3 -79 31 -25 29 -26 36 -26 154 0 131 4 155 25 155
8 0 17 5 20 10 4 6 -23 10 -74 10 -45 0 -81 -2 -81 -5z"/>
<path d="M1080 1253 c0 -6 9 -13 20 -16 19 -5 20 -14 20 -170 l0 -165 -27 -10
c-23 -9 -12 -11 57 -11 75 -1 82 1 60 12 -23 12 -25 18 -25 87 0 100 14 99
105 -12 l71 -88 52 0 52 1 -32 17 c-31 17 -143 141 -143 159 0 5 14 14 30 20
67 25 71 126 7 160 -37 19 -247 32 -247 16z m208 -50 c18 -20 22 -33 18 -57
-4 -17 -12 -37 -20 -44 -15 -15 -85 -34 -98 -26 -4 3 -8 38 -8 79 0 62 3 74
18 78 31 9 66 -3 90 -30z"/>
<path d="M1650 1255 c0 -3 11 -10 24 -15 23 -9 24 -12 28 -142 3 -143 12 -170
62 -203 40 -27 117 -30 168 -8 65 29 78 63 78 206 0 128 4 147 30 147 11 0 22
5 25 10 4 6 -18 10 -60 10 -42 0 -64 -4 -60 -10 3 -5 12 -10 20 -10 21 0 25
-24 25 -142 0 -160 -24 -198 -125 -198 -32 0 -51 7 -72 24 l-28 24 0 139 c0
134 1 138 23 148 40 18 23 25 -58 25 -44 0 -80 -2 -80 -5z"/>
<path d="M2250 1250 c0 -5 8 -10 18 -10 11 0 26 -8 35 -18 14 -16 17 -43 17
-164 0 -151 -2 -160 -45 -171 -11 -2 14 -5 55 -5 62 0 70 1 47 10 -35 13 -38
29 -35 168 l3 115 129 -145 c71 -80 132 -146 137 -148 5 -2 9 75 9 172 l0 175
28 15 c26 15 25 15 -43 15 -61 -1 -66 -3 -42 -12 l27 -11 0 -123 c0 -68 -2
-123 -3 -123 -2 0 -57 61 -121 135 l-118 135 -49 0 c-27 0 -49 -4 -49 -10z"/>
<path d="M2870 1255 c0 -3 11 -10 25 -15 l25 -10 -2 -162 c-3 -162 -3 -162
-28 -175 -21 -11 -2 -13 126 -13 l150 0 16 50 c18 56 12 65 -14 21 -17 -31
-66 -51 -125 -51 -64 0 -63 -3 -63 171 l0 159 25 10 c14 5 25 12 25 15 0 3
-36 5 -80 5 -44 0 -80 -2 -80 -5z"/>
<path d="M3390 1252 c0 -4 10 -12 23 -17 21 -10 22 -16 25 -150 1 -77 0 -150
-3 -162 -3 -12 -17 -26 -32 -31 -21 -8 11 -11 128 -11 l156 -1 11 39 c17 55
16 56 -22 16 -34 -35 -35 -36 -103 -33 l-68 3 -3 83 -3 82 53 0 c61 0 73 -6
87 -40 8 -20 10 -11 10 45 1 63 -1 67 -12 45 -11 -22 -20 -25 -75 -28 l-62 -3
0 71 0 70 75 0 c71 0 75 -1 89 -27 l15 -28 1 43 0 42 -145 0 c-80 0 -145 -3
-145 -8z"/>
<path d="M3910 1253 c0 -6 9 -13 20 -16 19 -5 20 -14 20 -170 l0 -165 -27 -10
c-23 -9 -12 -11 57 -11 75 -1 82 1 60 12 -23 12 -25 18 -25 87 0 100 14 99
105 -12 l71 -88 52 0 52 1 -32 17 c-31 17 -143 141 -143 159 0 5 14 14 30 20
67 25 71 126 7 160 -37 19 -247 32 -247 16z m208 -50 c18 -20 22 -33 18 -57
-4 -17 -12 -37 -20 -44 -15 -15 -85 -34 -98 -26 -4 3 -8 38 -8 79 0 62 3 74
18 78 31 9 66 -3 90 -30z"/>
<path d="M4485 1250 c3 -5 13 -10 20 -10 27 0 35 -40 35 -177 0 -145 -5 -167
-45 -176 -11 -3 21 -5 70 -5 72 0 84 2 63 10 l-28 10 0 164 0 164 25 10 c14 5
25 12 25 15 0 3 -39 5 -86 5 -54 0 -83 -4 -79 -10z"/>
</g>
</svg>
